<svg xmlns="http://www.w3.org/2000/svg" width="166" height="116" fill="none" viewBox="0 0 166 116">
    <g fill-rule="evenodd" clip-path="url(#a)" clip-rule="evenodd">
        <path fill="#4D4D4D" d="M82.539 4.462c-3.272 2.305-7.882 5.428-13.757 7.51-5.651 2.008-11.228 3.272-13.012 3.643-.224.075-.521 0-.521.075.297 6.246-1.785 6.171-4.685 8.03-.074.075-.371.075-.297.224.67 1.859 1.71 3.718 1.933 7.882.446 7.435-.149 19.63 2.9 26.323 3.495 7.659 13.757 15.912 21.564 20.225 2.082 1.19 4.908 2.603 5.95 3.123.966-.52 3.791-1.933 5.948-3.123 7.808-4.313 18.069-12.566 21.564-20.225 3.049-6.693 2.454-18.962 2.9-26.323.223-4.165 1.264-6.098 1.933-7.882.075-.075-.223-.15-.297-.223-2.9-1.86-5.057-1.785-4.685-8.031 0-.075-.297-.075-.52-.075-1.785-.371-7.436-1.636-13.013-3.643-6.098-2.157-10.633-5.205-13.905-7.51zm0-4.462C78.82 2.528 73.764 6.023 67.22 8.403c-6.246 2.23-12.567 3.643-14.5 4.09-.298.074-.595 0-.595.148.372 6.99-2.008 6.915-5.28 8.998-.148.074-.371.074-.371.223.743 2.082 1.933 4.164 2.23 8.848.447 8.254-.148 21.862 3.198 29.372 3.867 8.551 15.392 17.697 24.018 22.53 2.305 1.34 5.502 2.9 6.618 3.421 1.115-.52 4.238-2.156 6.618-3.42 8.7-4.834 20.151-13.98 24.018-22.53 3.42-7.511 2.751-21.119 3.197-29.373.297-4.684 1.413-6.766 2.231-8.849.074-.148-.223-.148-.372-.223-3.272-2.082-5.651-2.007-5.279-8.997 0-.074-.298-.074-.595-.149-2.008-.446-8.254-1.859-14.5-4.09C91.239 6.024 86.182 2.529 82.539 0z"/>
        <path fill="#0094C2" d="M82.538 8.849c-2.9 2.007-6.915 4.759-12.194 6.692-4.983 1.785-9.965 2.9-11.526 3.272-.223.074-.446 0-.446.074.297 5.577-1.636 5.503-4.164 7.139-.075.074-.298.074-.298.148.595 1.636 1.562 3.272 1.71 6.99.372 6.544-.148 17.4 2.529 23.349 2.602 5.726 9.518 11.823 15.764 15.913v-7.288c-4.313-3.197-8.626-7.361-10.336-11.079-2.157-4.759-1.71-15.764-2.008-21.192a20.713 20.713 0 0 0-.595-4.164c1.562-1.413 2.454-3.123 2.9-4.908 2.9-.744 5.726-1.562 8.477-2.603 3.718-1.338 6.99-3.048 10.187-5.13 3.198 2.007 6.47 3.792 10.188 5.13 2.75.967 5.576 1.86 8.476 2.603.447 1.859 1.339 3.495 2.9 4.908a21.555 21.555 0 0 0-.594 4.164c-.298 5.428.148 16.433-2.008 21.192-2.528 5.651-11.228 12.195-16.582 15.17-.744.445-1.562.817-2.38 1.263-.818-.446-1.561-.818-2.38-1.264a79.195 79.195 0 0 1-2.9-1.784v6.915c1.86 1.041 4.388 2.305 5.28 2.751.893-.446 3.42-1.71 5.28-2.751 6.915-3.867 15.987-11.08 19.11-17.92 2.677-5.95 2.157-16.731 2.528-23.35.223-3.717 1.116-5.353 1.711-6.989 0-.074-.149-.149-.298-.149-2.602-1.636-4.461-1.561-4.164-7.138 0-.075-.223-.075-.446-.075-1.562-.297-6.544-1.412-11.526-3.271-5.28-1.86-9.295-4.61-12.195-6.618z"/>
        <path fill="#0094C2" d="M90.644 28.926h-23.35v5.28h21.937c1.338 0 2.38.222 2.38 1.932v2.826c0 2.454-.521 2.38-2.678 2.38H67.295v24.984h6.692V46.103c6.395 0 12.716-.075 19.11-.075 2.826 0 4.76-1.859 4.76-4.684v-7.139c-.075-4.684-3.719-5.28-7.213-5.28z"/>
        <path fill="#4D4D4D" d="M139.571 102.615h10.708v1.636l2.975-.595v-1.264c0-1.71-1.339-2.453-2.975-2.453H138.53c-1.189 0-2.156 1.561-2.156 2.528v4.015c0 2.231 2.38 2.751 4.685 2.751h9.295v3.57h-11.229v-1.636l-3.271.595v1.041c0 2.082.966 2.974 2.974 2.974h12.343c1.711 0 2.454-1.339 2.454-2.974v-2.975c0-1.933-.52-3.569-2.454-3.569h-11.525c-.075-1.338-.075-2.528-.075-3.644zM161.434 115.703h3.569V99.864h-3.569v15.839zM75.027 105.069h14.5v-2.454h-14.5v2.454z"/>
        <path fill="#0094C2" d="M75.548 107.746h-.52v8.18h14.5v-2.752H78.596V110.2h6.32v-2.454h-9.37zM67.072 106.631V116h2.454v-13.385h-2.454a704.245 704.245 0 0 1-6.469 7.734c-2.156-2.528-4.536-5.205-6.692-7.808-.892-.074-1.562.074-2.454 0v13.162h2.454v-8.477l6.544 6.841 6.617-7.436zM13.385 99.567H0v3.048h12.567c.743 0 1.338.149 1.338 1.116v1.636c0 1.412-.297 1.338-1.561 1.338H-.074v8.998h3.866v-6.321c3.644 0 7.288 0 10.931-.074 1.636 0 2.751-1.041 2.751-2.677v-4.09c.075-2.677-2.007-2.974-4.09-2.974zM45.657 115.703v-13.162h-3.57c0 4.387.075 8.774.075 13.162h3.495zM22.159 108.564c0 2.454 0 4.908.074 7.362h3.272v-4.908h2.974c1.785 1.561 3.57 3.197 5.354 4.759 1.339 0 2.603-.074 3.941-.074-1.785-1.562-3.57-3.198-5.354-4.759.67-.075 1.339-.149 2.082-.149.967 0 2.454-.744 2.454-1.636v-4.908c0-.966-.967-1.561-1.933-1.636H21.86v2.454H32.57c1.413 0 1.413.298 1.338 1.487 0 2.454-.371 2.082-4.387 2.082-2.453-.074-4.907-.074-7.361-.074z"/>
        <path fill="#4D4D4D" d="M130.797 99.864h-2.751l-4.685 10.41-4.684-10.41h-2.157l-4.387 10.41-4.387-10.41h-2.975l5.726 15.839 2.157.074 4.684-10.41 4.685 10.336h2.677l6.097-15.839z"/>
    </g>
    <defs>
        <clipPath id="a">
            <path fill="#fff" d="M0 0h165.003v116H0z"/>
        </clipPath>
    </defs>
</svg>
